<?xml version="1.0" encoding="utf-8"?>
<!-- Generator: Adobe Illustrator 19.2.0, SVG Export Plug-In . SVG Version: 6.00 Build 0)  -->
<svg version="1.1" id="Lager_1" xmlns="http://www.w3.org/2000/svg" xmlns:xlink="http://www.w3.org/1999/xlink" x="0px" y="0px"
	 viewBox="0 0 64 64" style="enable-background:new 0 0 64 64;" xml:space="preserve">
<style type="text/css">
	.st0{fill:none;stroke:#2B613B;stroke-width:2;stroke-miterlimit:10;}
	.st1{fill:none;stroke:#58645C;stroke-width:2;stroke-miterlimit:10;}
	.st2{fill:#FFFFFF;stroke:#58645C;stroke-width:2;stroke-miterlimit:10;}
</style>
<path class="st0" d="M308.2,171.8h-14c-2.3,0-4.1-1.8-4.1-4.1v-17.9c0-2.3,1.8-4.1,4.1-4.1h14c2.3,0,4.1,1.8,4.1,4.1v17.9
	C312.3,170,310.4,171.8,308.2,171.8z"/>
<path class="st1" d="M39.2,49.8h-14c-2.3,0-4.1-1.8-4.1-4.1V27.8c0-2.3,1.8-4.1,4.1-4.1h14c2.3,0,4.1,1.8,4.1,4.1v17.9
	C43.3,48,41.4,49.8,39.2,49.8z"/>
<line class="st1" x1="26.4" y1="29.5" x2="26.4" y2="45.8"/>
<line class="st1" x1="32" y1="29.5" x2="32" y2="45.8"/>
<line class="st1" x1="37.6" y1="29.5" x2="37.6" y2="45.8"/>
<path class="st2" d="M42.4,26.5H21.1c-1.4,0-2.5-1.1-2.5-2.5v-2.8c0-1.4,1.1-2.5,2.5-2.5h21.3c1.4,0,2.5,1.1,2.5,2.5V24
	C44.8,25.4,43.7,26.5,42.4,26.5z"/>
<path class="st1" d="M26.4,21c0,0-1-3.1,0-6.1c2.2,0,9.1,0,11.2,0c1.2,3.1,0,6.1,0,6.1"/>
</svg>
