<?xml version="1.0" encoding="utf-8"?>
<!-- Generator: Adobe Illustrator 19.2.0, SVG Export Plug-In . SVG Version: 6.00 Build 0)  -->
<svg version="1.1" id="Lager_1" xmlns="http://www.w3.org/2000/svg" xmlns:xlink="http://www.w3.org/1999/xlink" x="0px" y="0px"
	 viewBox="0 0 50 50" style="enable-background:new 0 0 50 50;" xml:space="preserve">
<style type="text/css">
	.st0{fill:none;stroke:#692D3B;stroke-width:1.5;stroke-miterlimit:10;}
	.st1{fill:#FFFFFF;stroke:#692D3B;stroke-width:1.5;stroke-miterlimit:10;}
</style>
<g>
	<path class="st0" d="M28.5,36.3h-7c-2.3,0-4.1-1.8-4.1-4.1v-9.7c0-2.3,1.8-4.1,4.1-4.1h7c2.3,0,4.1,1.8,4.1,4.1v9.7
		C32.7,34.5,30.8,36.3,28.5,36.3z"/>
	<line class="st0" x1="21.1" y1="22.4" x2="21.1" y2="33.5"/>
	<line class="st0" x1="24.9" y1="22.4" x2="24.9" y2="33.5"/>
	<line class="st0" x1="28.7" y1="22.4" x2="28.7" y2="33.5"/>
	<path class="st1" d="M31.3,20.3h-13c-1.4,0-2.5-1.1-2.5-2.5v-0.4c0-1.4,1.1-2.5,2.5-2.5h13c1.4,0,2.5,1.1,2.5,2.5v0.4
		C33.7,19.2,32.6,20.3,31.3,20.3z"/>
	<path class="st0" d="M21.1,16.6c0,0-0.7-2.1,0-4.2c1.5,0,6.2,0,7.6,0c0.8,2.1,0,4.2,0,4.2"/>
</g>
</svg>
